<svg width="48" height="48" viewBox="0 0 48 48" fill="none" xmlns="http://www.w3.org/2000/svg">
<path fill-rule="evenodd" clip-rule="evenodd" d="M36 2H12C6.47715 2 2 6.47715 2 12V36C2 41.5228 6.47715 46 12 46H36C41.5228 46 46 41.5228 46 36V12C46 6.47715 41.5228 2 36 2ZM12 0C5.37258 0 0 5.37258 0 12V36C0 42.6274 5.37258 48 12 48H36C42.6274 48 48 42.6274 48 36V12C48 5.37258 42.6274 0 36 0H12Z" fill="#787878"/>
<path fill-rule="evenodd" clip-rule="evenodd" d="M20.2929 17.2929C20.6834 16.9024 21.3166 16.9024 21.7071 17.2929L27.7071 23.2929C28.0976 23.6834 28.0976 24.3166 27.7071 24.7071L21.7071 30.7071C21.3166 31.0976 20.6834 31.0976 20.2929 30.7071C19.9024 30.3166 19.9024 29.6834 20.2929 29.2929L25.5858 24L20.2929 18.7071C19.9024 18.3166 19.9024 17.6834 20.2929 17.2929Z" fill="#787878"/>
</svg>
